<svg width="800" height="600" viewBox="0 0 800 600" fill="none" xmlns="http://www.w3.org/2000/svg">
  <!-- Background elements -->
  <circle cx="400" cy="300" r="250" fill="#ffffff" fill-opacity="0.1"/>
  <circle cx="400" cy="300" r="200" fill="#ffffff" fill-opacity="0.1"/>
  <circle cx="400" cy="300" r="150" fill="#ffffff" fill-opacity="0.1"/>
  
  <!-- Device outline -->
  <rect x="270" y="150" width="260" height="340" rx="20" fill="#ffffff" fill-opacity="0.2"/>
  <rect x="285" y="170" width="230" height="280" rx="8" fill="#ffffff" fill-opacity="0.3"/>
  
  <!-- Abstract data visualization -->
  <rect x="310" y="200" width="180" height="40" rx="6" fill="#ffffff" fill-opacity="0.4"/>
  <rect x="310" y="260" width="140" height="40" rx="6" fill="#ffffff" fill-opacity="0.4"/>
  <rect x="310" y="320" width="160" height="40" rx="6" fill="#ffffff" fill-opacity="0.4"/>
  <rect x="310" y="380" width="120" height="40" rx="6" fill="#ffffff" fill-opacity="0.4"/>
  
  <!-- Abstract connection lines -->
  <line x1="150" y1="200" x2="250" y2="250" stroke="#ffffff" stroke-width="2" stroke-opacity="0.5"/>
  <line x1="150" y1="300" x2="250" y2="350" stroke="#ffffff" stroke-width="2" stroke-opacity="0.5"/>
  <line x1="550" y1="200" x2="650" y2="150" stroke="#ffffff" stroke-width="2" stroke-opacity="0.5"/>
  <line x1="550" y1="300" x2="650" y2="350" stroke="#ffffff" stroke-width="2" stroke-opacity="0.5"/>
  
  <!-- Connection dots -->
  <circle cx="150" cy="200" r="8" fill="#ffffff"/>
  <circle cx="150" cy="300" r="8" fill="#ffffff"/>
  <circle cx="650" cy="150" r="8" fill="#ffffff"/>
  <circle cx="650" cy="350" r="8" fill="#ffffff"/>
  
  <!-- Decorative elements -->
  <circle cx="200" cy="450" r="30" fill="#ffffff" fill-opacity="0.2"/>
  <circle cx="600" cy="150" r="40" fill="#ffffff" fill-opacity="0.2"/>
  <circle cx="150" cy="150" r="25" fill="#ffffff" fill-opacity="0.2"/>
</svg> 